{
    "asset" : {
        "generator" : "Khronos glTF Blender I/O v1.1.46",
        "version" : "2.0"
    },
    "scene" : 0,
    "scenes" : [
        {
            "name" : "Scene",
            "nodes" : [
                3
            ]
        }
    ],
    "nodes" : [
        {
            "mesh" : 0,
            "name" : "Base",
            "translation" : [
                0,
                0,
                62.072933197021484
            ]
        },
        {
            "mesh" : 1,
            "name" : "Handle",
            "translation" : [
                0,
                136.49331665039062,
                -31.036466598510742
            ]
        },
        {
            "mesh" : 2,
            "name" : "Handle_2",
            "rotation" : [
                1,
                0,
                0,
                7.549790126404332e-08
            ],
            "translation" : [
                0,
                -136.49331665039062,
                -31.036466598510742
            ]
        },
        {
            "children" : [
                0,
                1,
                2
            ],
            "name" : "Winner_Cup",
            "rotation" : [
                0.7071068286895752,
                0,
                0,
                0.7071067094802856
            ],
            "scale" : [
                0.003000000026077032,
                0.003000000026077032,
                0.003000000026077032
            ],
            "translation" : [
                0,
                0.6616907715797424,
                0
            ]
        }
    ],
    "materials" : [
        {
            "doubleSided" : true,
            "emissiveFactor" : [
                0,
                0,
                0
            ],
            "name" : "\u041c\u0430\u0442\u0435\u0440\u0438\u0430\u043b",
            "pbrMetallicRoughness" : {
                "baseColorFactor" : [
                    0.2800000011920929,
                    0.10266666859388351,
                    0,
                    1
                ],
                "metallicFactor" : 0,
                "roughnessFactor" : 0.4343145787715912
            }
        },
        {
            "doubleSided" : true,
            "emissiveFactor" : [
                0,
                0,
                0
            ],
            "name" : "Gold",
            "pbrMetallicRoughness" : {
                "baseColorFactor" : [
                    1,
                    0.800000011920929,
                    0,
                    1
                ],
                "metallicFactor" : 1,
                "roughnessFactor" : 0
            }
        }
    ],
    "meshes" : [
        {
            "name" : "Mesh.002",
            "primitives" : [
                {
                    "attributes" : {
                        "POSITION" : 0,
                        "NORMAL" : 1,
                        "TEXCOORD_0" : 2
                    },
                    "indices" : 3,
                    "material" : 0
                },
                {
                    "attributes" : {
                        "POSITION" : 4,
                        "NORMAL" : 5,
                        "TEXCOORD_0" : 6
                    },
                    "indices" : 7,
                    "material" : 1
                }
            ]
        },
        {
            "name" : "Mesh",
            "primitives" : [
                {
                    "attributes" : {
                        "POSITION" : 8,
                        "NORMAL" : 9,
                        "TEXCOORD_0" : 10
                    },
                    "indices" : 11,
                    "material" : 1
                }
            ]
        },
        {
            "name" : "Mesh.001",
            "primitives" : [
                {
                    "attributes" : {
                        "POSITION" : 12,
                        "NORMAL" : 13,
                        "TEXCOORD_0" : 14
                    },
                    "indices" : 15,
                    "material" : 1
                }
            ]
        }
    ],
    "accessors" : [
        {
            "bufferView" : 0,
            "componentType" : 5126,
            "count" : 172,
            "max" : [
                84.63999938964844,
                84.63999938964844,
                162.24281311035156
            ],
            "min" : [
                -84.63999938964844,
                -84.63999938964844,
                139.45286560058594
            ],
            "type" : "VEC3"
        },
        {
            "bufferView" : 1,
            "componentType" : 5126,
            "count" : 172,
            "type" : "VEC3"
        },
        {
            "bufferView" : 2,
            "componentType" : 5126,
            "count" : 172,
            "type" : "VEC2"
        },
        {
            "bufferView" : 3,
            "componentType" : 5123,
            "count" : 360,
            "type" : "SCALAR"
        },
        {
            "bufferView" : 4,
            "componentType" : 5126,
            "count" : 1698,
            "max" : [
                99.93833923339844,
                99.93833923339844,
                139.45286560058594
            ],
            "min" : [
                -99.93833923339844,
                -99.93833923339844,
                -138.80287170410156
            ],
            "type" : "VEC3"
        },
        {
            "bufferView" : 5,
            "componentType" : 5126,
            "count" : 1698,
            "type" : "VEC3"
        },
        {
            "bufferView" : 6,
            "componentType" : 5126,
            "count" : 1698,
            "type" : "VEC2"
        },
        {
            "bufferView" : 7,
            "componentType" : 5123,
            "count" : 8640,
            "type" : "SCALAR"
        },
        {
            "bufferView" : 8,
            "componentType" : 5126,
            "count" : 468,
            "max" : [
                11.574641227722168,
                70.6590805053711,
                94.52265167236328
            ],
            "min" : [
                -11.574641227722168,
                -73.27607727050781,
                -96.39632415771484
            ],
            "type" : "VEC3"
        },
        {
            "bufferView" : 9,
            "componentType" : 5126,
            "count" : 468,
            "type" : "VEC3"
        },
        {
            "bufferView" : 10,
            "componentType" : 5126,
            "count" : 468,
            "type" : "VEC2"
        },
        {
            "bufferView" : 11,
            "componentType" : 5123,
            "count" : 2211,
            "type" : "SCALAR"
        },
        {
            "bufferView" : 12,
            "componentType" : 5126,
            "count" : 468,
            "max" : [
                11.574641227722168,
                70.6590805053711,
                96.39632415771484
            ],
            "min" : [
                -11.574641227722168,
                -73.27607727050781,
                -94.52265167236328
            ],
            "type" : "VEC3"
        },
        {
            "bufferView" : 13,
            "componentType" : 5126,
            "count" : 468,
            "type" : "VEC3"
        },
        {
            "bufferView" : 14,
            "componentType" : 5126,
            "count" : 468,
            "type" : "VEC2"
        },
        {
            "bufferView" : 15,
            "componentType" : 5123,
            "count" : 2211,
            "type" : "SCALAR"
        }
    ],
    "bufferViews" : [
        {
            "buffer" : 0,
            "byteLength" : 2064,
            "byteOffset" : 0
        },
        {
            "buffer" : 0,
            "byteLength" : 2064,
            "byteOffset" : 2064
        },
        {
            "buffer" : 0,
            "byteLength" : 1376,
            "byteOffset" : 4128
        },
        {
            "buffer" : 0,
            "byteLength" : 720,
            "byteOffset" : 5504
        },
        {
            "buffer" : 0,
            "byteLength" : 20376,
            "byteOffset" : 6224
        },
        {
            "buffer" : 0,
            "byteLength" : 20376,
            "byteOffset" : 26600
        },
        {
            "buffer" : 0,
            "byteLength" : 13584,
            "byteOffset" : 46976
        },
        {
            "buffer" : 0,
            "byteLength" : 17280,
            "byteOffset" : 60560
        },
        {
            "buffer" : 0,
            "byteLength" : 5616,
            "byteOffset" : 77840
        },
        {
            "buffer" : 0,
            "byteLength" : 5616,
            "byteOffset" : 83456
        },
        {
            "buffer" : 0,
            "byteLength" : 3744,
            "byteOffset" : 89072
        },
        {
            "buffer" : 0,
            "byteLength" : 4422,
            "byteOffset" : 92816
        },
        {
            "buffer" : 0,
            "byteLength" : 5616,
            "byteOffset" : 97240
        },
        {
            "buffer" : 0,
            "byteLength" : 5616,
            "byteOffset" : 102856
        },
        {
            "buffer" : 0,
            "byteLength" : 3744,
            "byteOffset" : 108472
        },
        {
            "buffer" : 0,
            "byteLength" : 4422,
            "byteOffset" : 112216
        }
    ],
    "buffers" : [
        {
            "byteLength" : 116640,
            "uri" : "data:application/octet-stream;base64,"
        }
    ]
}
