# Blender v2.82 (sub 7) OBJ File: 'key.blend'
# www.blender.org
mtllib key.mtl
o Cube_Cube.002
v -0.042107 0.040153 0.084215
v -0.042107 0.208582 0.084215
v -0.042107 0.040153 -0.084215
v -0.042107 0.208582 -0.084215
v 0.042107 0.040153 0.084215
v 0.042107 0.208582 0.084215
v 0.042107 0.040153 -0.084215
v 0.042107 0.208582 -0.084215
v 0.042107 0.082260 0.042107
v -0.042107 0.082260 0.042107
v 0.042107 0.166475 0.042107
v -0.042107 0.166475 0.042107
v 0.042107 0.166475 -0.042107
v -0.042107 0.166475 -0.042107
v 0.042107 0.082260 -0.042107
v -0.042107 0.082260 -0.042107
v -0.042107 0.040153 -0.028596
v 0.042107 0.040153 -0.028596
v -0.042107 0.040153 0.026952
v 0.042107 0.040153 0.026952
v -0.026225 0.040153 -0.028596
v -0.026225 0.040153 0.026952
v 0.023731 0.040153 -0.028596
v 0.023731 0.040153 0.026952
v -0.026225 -0.055981 -0.028596
v -0.026225 -0.055981 0.026952
v 0.023731 -0.055981 -0.028596
v 0.023731 -0.055981 0.026952
v -0.026225 -0.102423 -0.028596
v -0.026225 -0.102423 0.026952
v 0.023731 -0.102423 -0.028596
v 0.023731 -0.102423 0.026952
v -0.026225 -0.145619 -0.028596
v -0.026225 -0.145619 0.026952
v 0.023731 -0.145619 -0.028596
v 0.023731 -0.145619 0.026952
v -0.026225 -0.188389 -0.028596
v -0.026225 -0.188389 0.026952
v 0.023731 -0.188389 -0.028596
v 0.023731 -0.188389 0.026952
v -0.026225 -0.055981 -0.079227
v 0.023731 -0.055981 -0.079227
v -0.026225 -0.102423 -0.079227
v 0.023731 -0.102423 -0.079227
v -0.026225 -0.145619 -0.103074
v 0.023731 -0.145619 -0.103074
v -0.026225 -0.188389 -0.103074
v 0.023731 -0.188389 -0.103074
vt -0.575338 -0.575338
vt 0.083422 0.083422
vt 0.083422 -0.575338
vt -0.575338 0.087736
vt 0.083422 0.746496
vt 0.083422 0.087736
vt 0.746496 0.746496
vt 0.087736 0.419273
vt 0.087736 0.746496
vt 1.078033 0.087736
vt 0.750810 0.746496
vt 1.078033 0.746496
vt 0.746496 0.414959
vt 0.087736 0.087736
vt 0.087736 0.414959
vt 1.078033 -0.575338
vt 0.750810 0.083422
vt 1.078033 0.083422
vt 0.746496 1.248116
vt 0.419273 1.409570
vt 0.746496 1.409570
vt 1.413884 0.419273
vt 1.575338 0.580727
vt 1.575338 0.419273
vt -0.575338 0.750810
vt -0.248115 1.078033
vt -0.248115 0.750810
vt -0.243801 0.750810
vt 0.083422 1.078033
vt 0.083422 0.750810
vt 1.082347 0.087736
vt 1.243801 0.414959
vt 1.243801 0.087736
vt 1.243801 0.912264
vt 0.916578 0.750810
vt 0.916578 0.912264
vt 0.912264 0.750810
vt 0.750810 1.078033
vt 0.912264 1.078033
vt 1.413884 0.253504
vt 1.575338 0.414959
vt 1.575338 0.253504
vt 0.253504 1.413884
vt 0.414959 1.575338
vt 0.414959 1.413884
vt -0.078033 1.413884
vt 0.083422 1.575338
vt 0.083422 1.413884
vt -0.243801 1.413884
vt -0.082347 1.575338
vt -0.082347 1.413884
vt -0.409570 1.413884
vt -0.248115 1.575338
vt -0.248115 1.413884
vt 1.078033 1.243801
vt 0.750810 1.082347
vt 0.750810 1.243801
vt 1.248116 -0.575338
vt 1.409570 -0.248115
vt 1.409570 -0.575338
vt 1.243801 1.078033
vt 0.916578 0.916578
vt 0.916578 1.078033
vt 1.409570 -0.243801
vt 1.248116 0.083422
vt 1.409570 0.083422
vt 0.419273 1.413884
vt 0.580727 1.575338
vt 0.580727 1.413884
vt 0.083422 1.409570
vt -0.243801 1.248116
vt -0.243801 1.409570
vt 1.409570 0.087736
vt 1.248116 0.414959
vt 1.409570 0.414959
vt 0.414959 1.248116
vt 0.087736 1.409570
vt 0.414959 1.409570
vt 0.419273 0.750810
vt 0.746496 1.078033
vt 0.746496 0.750810
vt -0.575338 1.413884
vt -0.413884 1.575338
vt -0.413884 1.413884
vt 1.409570 0.750810
vt 1.248116 1.078033
vt 1.409570 1.078033
vt 1.078033 1.248116
vt 0.750810 1.409570
vt 1.078033 1.409570
vt 0.087736 0.750810
vt 0.414959 1.078033
vt 0.414959 0.750810
vt 0.087736 -0.575338
vt 0.746496 0.083422
vt 0.746496 -0.575338
vt 1.575338 -0.243801
vt 1.413884 0.083422
vt 1.575338 0.083422
vt 1.409570 1.409570
vt 1.082347 1.248116
vt 1.082347 1.409570
vt 1.409570 0.419273
vt 1.248116 0.746496
vt 1.409570 0.746496
vt 1.409570 1.082347
vt 1.082347 1.243801
vt 1.409570 1.243801
vt 1.413884 -0.575338
vt 1.575338 -0.248115
vt 1.575338 -0.575338
vt 0.083421 1.135662
vt 0.083421 1.188909
vt -0.575338 1.122711
vt 1.413884 0.087736
vt 1.575338 0.249190
vt 1.575338 0.087736
vt 0.087736 1.413884
vt 0.249190 1.575338
vt 0.249190 1.413884
vt 1.243801 -0.060326
vt 1.243801 0.083422
vt 1.082347 0.083422
vt 0.746495 1.117578
vt 0.746496 1.213351
vt 0.087736 1.243801
vt 1.082347 0.419273
vt 1.243801 0.746496
vt 1.243801 0.419273
vt 1.575338 0.587199
vt 1.416041 0.746496
vt 1.575338 0.746496
vt -0.575338 1.409570
vt -0.248115 1.248116
vt -0.575338 1.248116
vt 1.413884 0.744339
vt 1.413884 0.585041
vt 1.573181 0.585041
vt -0.575338 0.083422
vt -0.575338 0.746496
vt 0.746496 0.419273
vt 0.750810 0.087736
vt 0.746496 0.087736
vt 0.750810 -0.575338
vt 0.419273 1.248116
vt 1.413884 0.580727
vt -0.575338 1.078033
vt -0.243801 1.078033
vt 1.082347 0.414959
vt 1.243801 0.750810
vt 0.750810 0.750810
vt 1.413884 0.414959
vt 0.253504 1.575338
vt -0.078033 1.575338
vt -0.243801 1.575338
vt -0.409570 1.575338
vt 1.078033 1.082347
vt 1.248116 -0.248115
vt 1.243801 0.916578
vt 1.248116 -0.243801
vt 0.419273 1.575338
vt 0.083422 1.248116
vt 1.248116 0.087736
vt 0.087736 1.248116
vt 0.419273 1.078033
vt -0.575338 1.575338
vt 1.248116 0.750810
vt 0.750810 1.248116
vt 0.087736 1.078033
vt 0.087736 0.083422
vt 1.413884 -0.243801
vt 1.409570 1.248116
vt 1.248116 0.419273
vt 1.082347 1.082347
vt 1.413884 -0.248115
vt 0.083422 1.243801
vt -0.575338 1.203438
vt 0.083421 1.082347
vt 1.413884 0.249190
vt 0.087736 1.575338
vt 1.082347 -0.575338
vt 1.243801 -0.575338
vt 1.243801 -0.451097
vt 0.087736 1.082347
vt 0.746495 1.082347
vt 0.746496 1.243801
vt 1.082347 0.746496
vt -0.248115 1.409570
vn 0.0000 0.0000 1.0000
vn 0.0000 1.0000 0.0000
vn 0.0000 0.0000 -1.0000
vn 0.0000 -1.0000 0.0000
vn 1.0000 0.0000 0.0000
vn -1.0000 0.0000 0.0000
usemtl None
s off
f 6/1/1 1/2/1 5/3/1
f 4/4/2 6/5/2 8/6/2
f 15/7/1 14/8/1 16/9/1
f 9/10/2 16/11/2 10/12/2
f 10/13/3 11/14/3 9/15/3
f 12/16/4 13/17/4 11/18/4
f 24/19/5 27/20/5 23/21/5
f 31/22/5 42/23/5 27/24/5
f 23/25/3 25/26/3 21/27/3
f 22/28/1 28/29/1 24/30/1
f 21/31/6 26/32/6 22/33/6
f 30/34/1 36/35/1 32/36/1
f 26/37/1 32/38/1 28/39/1
f 25/40/6 30/41/6 26/42/6
f 28/43/5 31/44/5 27/45/5
f 36/46/5 39/47/5 35/48/5
f 29/49/6 34/50/6 30/51/6
f 32/52/5 35/53/5 31/54/5
f 31/55/3 33/56/3 29/57/3
f 37/58/4 40/59/4 38/60/4
f 27/61/2 41/62/2 25/63/2
f 34/64/1 40/65/1 36/66/1
f 33/67/6 38/68/6 34/69/6
f 42/70/3 43/71/3 41/72/3
f 46/73/3 47/74/3 45/75/3
f 33/76/6 47/77/6 37/78/6
f 35/79/2 45/80/2 33/81/2
f 25/82/6 43/83/6 29/84/6
f 29/85/4 44/86/4 31/87/4
f 39/88/5 46/89/5 35/90/5
f 37/91/4 48/92/4 39/93/4
f 4/94/3 7/95/3 3/96/3
f 6/97/5 13/98/5 8/99/5
f 8/100/5 15/101/5 7/102/5
f 2/103/6 10/104/6 1/105/6
f 14/106/6 2/107/6 4/108/6
f 16/109/6 4/110/6 3/111/6
f 17/112/6 19/113/6 16/114/6
f 24/115/4 18/116/4 20/117/4
f 17/118/4 22/119/4 19/120/4
f 24/121/4 20/122/4 5/123/4
f 23/124/4 21/125/4 3/126/4
f 9/127/5 6/128/5 5/129/5
f 7/130/5 15/131/5 18/132/5
f 15/133/5 20/134/5 18/135/5
f 5/136/5 20/137/5 9/138/5
f 6/1/1 2/139/1 1/2/1
f 4/4/2 2/140/2 6/5/2
f 15/7/1 13/141/1 14/8/1
f 9/10/2 15/142/2 16/11/2
f 10/13/3 12/143/3 11/14/3
f 12/16/4 14/144/4 13/17/4
f 24/19/5 28/145/5 27/20/5
f 31/22/5 44/146/5 42/23/5
f 23/25/3 27/147/3 25/26/3
f 22/28/1 26/148/1 28/29/1
f 21/31/6 25/149/6 26/32/6
f 30/34/1 34/150/1 36/35/1
f 26/37/1 30/151/1 32/38/1
f 25/40/6 29/152/6 30/41/6
f 28/43/5 32/153/5 31/44/5
f 36/46/5 40/154/5 39/47/5
f 29/49/6 33/155/6 34/50/6
f 32/52/5 36/156/5 35/53/5
f 31/55/3 35/157/3 33/56/3
f 37/58/4 39/158/4 40/59/4
f 27/61/2 42/159/2 41/62/2
f 34/64/1 38/160/1 40/65/1
f 33/67/6 37/161/6 38/68/6
f 42/70/3 44/162/3 43/71/3
f 46/73/3 48/163/3 47/74/3
f 33/76/6 45/164/6 47/77/6
f 35/79/2 46/165/2 45/80/2
f 25/82/6 41/166/6 43/83/6
f 29/85/4 43/167/4 44/86/4
f 39/88/5 48/168/5 46/89/5
f 37/91/4 47/169/4 48/92/4
f 4/94/3 8/170/3 7/95/3
f 6/97/5 11/171/5 13/98/5
f 8/100/5 13/172/5 15/101/5
f 2/103/6 12/173/6 10/104/6
f 14/106/6 12/174/6 2/107/6
f 16/109/6 14/175/6 4/110/6
f 19/113/6 1/176/6 10/177/6
f 10/177/6 16/114/6 19/113/6
f 16/114/6 3/178/6 17/112/6
f 24/115/4 23/179/4 18/116/4
f 17/118/4 21/180/4 22/119/4
f 5/123/4 1/181/4 24/121/4
f 1/181/4 19/182/4 22/183/4
f 22/183/4 24/121/4 1/181/4
f 7/184/4 18/185/4 23/124/4
f 21/125/4 17/186/4 3/126/4
f 7/184/4 23/124/4 3/126/4
f 9/127/5 11/187/5 6/128/5
f 15/133/5 9/188/5 20/134/5
